<?xml version="1.0" encoding="UTF-8"?>
<svg xmlns="http://www.w3.org/2000/svg" width="360" height="360" viewBox="0 0 360 360">
  <defs>
    <clipPath id="clip2">
      <rect x="0" y="0" width="360" height="360" rx="84.6" ry="84.6"/>
    </clipPath>
    <linearGradient id="tile2" x1="0" y1="0" x2="1" y2="1">
      <stop offset="0%" stop-color="#ff9b7b"/>
      <stop offset="55%" stop-color="#fe6c90"/>
      <stop offset="100%" stop-color="#c952a8"/>
    </linearGradient>
    <radialGradient id="glow2a" cx="0.28" cy="0.28" r="0.55">
      <stop offset="0%" stop-color="rgba(255,150,110,0.55)"/>
      <stop offset="100%" stop-color="rgba(255,150,110,0)"/>
    </radialGradient>
    <radialGradient id="glow2b" cx="0.78" cy="0.82" r="0.55">
      <stop offset="0%" stop-color="rgba(235,99,197,0.5)"/>
      <stop offset="100%" stop-color="rgba(235,99,197,0)"/>
    </radialGradient>
    <linearGradient id="sheen2" x1="0" y1="0" x2="0" y2="1">
      <stop offset="0%" stop-color="white" stop-opacity="0.45"/>
      <stop offset="100%" stop-color="white" stop-opacity="0"/>
    </linearGradient>
    <linearGradient id="hl2" x1="0" y1="0" x2="1" y2="1">
      <stop offset="0%" stop-color="white" stop-opacity="0.5"/>
      <stop offset="100%" stop-color="white" stop-opacity="0"/>
    </linearGradient>
    <linearGradient id="brush2" x1="0" y1="0" x2="1" y2="1">
      <stop offset="0%" stop-color="#ff8c64"/>
      <stop offset="50%" stop-color="#ff397d"/>
      <stop offset="100%" stop-color="#c72da2"/>
    </linearGradient>
    <linearGradient id="brush2g" x1="0" y1="0" x2="0" y2="1">
      <stop offset="0%" stop-color="white" stop-opacity="0.95"/>
      <stop offset="100%" stop-color="white" stop-opacity="0"/>
    </linearGradient>
    <filter id="ds2" x="-20%" y="-20%" width="140%" height="140%">
      <feDropShadow dx="0" dy="8" stdDeviation="6" flood-color="rgba(116,0,90,0.55)"/>
    </filter>
  </defs>
  <g clip-path="url(#clip2)">
    <rect x="0" y="0" width="360" height="360" fill="url(#tile2)"/>
    <rect x="0" y="0" width="360" height="360" fill="url(#glow2a)"/>
    <rect x="0" y="0" width="360" height="360" fill="url(#glow2b)"/>
    <rect x="0" y="0" width="360" height="170" fill="url(#sheen2)"/>
    <ellipse cx="100" cy="80" rx="120" ry="80" fill="url(#hl2)"/>
  </g>
  <rect x="0.5" y="0.5" width="359" height="359" rx="84.1" ry="84.1"
        fill="none" stroke="white" stroke-opacity="0.5" stroke-width="1"/>
  <g filter="url(#ds2)">
    <path d="M 80 250 C 100 180, 170 120, 248 110 C 286 106, 308 132, 296 168 C 284 200, 240 212, 196 206 C 152 200, 116 216, 102 244"
          stroke="url(#brush2)" stroke-width="50" stroke-linecap="round" fill="none"/>
    <path d="M 96 232 C 116 178, 180 132, 244 124"
          stroke="url(#brush2g)" stroke-width="16" stroke-linecap="round" fill="none" opacity="0.85"/>
    <circle cx="208" cy="138" r="6" fill="white" opacity="0.95"/>
  </g>
</svg>
